<svg width="135" height="49" viewBox="0 0 135 49" fill="none" xmlns="http://www.w3.org/2000/svg">
<path d="M4.896 5.152H27.792V10.096H10.032V20.032H25.824V24.976H10.032V35.056H28.464V40H4.896V5.152ZM43.6451 40.528L32.2691 19.888H38.1251L45.5171 35.44L42.4931 35.296L49.2131 19.888H54.7331L43.8371 40.528H43.6451ZM57.0953 29.728C57.0953 27.712 57.5753 25.904 58.5353 24.304C59.4953 22.672 60.8233 21.392 62.5193 20.464C64.2153 19.536 66.1513 19.072 68.3273 19.072C70.5353 19.072 72.4713 19.536 74.1353 20.464C75.7993 21.392 77.0793 22.672 77.9753 24.304C78.9033 25.904 79.3673 27.712 79.3673 29.728C79.3673 31.744 78.9033 33.568 77.9753 35.2C77.0793 36.832 75.7993 38.128 74.1353 39.088C72.4713 40.016 70.5193 40.48 68.2793 40.48C66.1353 40.48 64.2153 40.048 62.5193 39.184C60.8553 38.32 59.5273 37.088 58.5353 35.488C57.5753 33.856 57.0953 31.936 57.0953 29.728ZM62.0872 29.776C62.0872 31.024 62.3593 32.16 62.9033 33.184C63.4473 34.176 64.1833 34.976 65.1113 35.584C66.0393 36.16 67.0793 36.448 68.2313 36.448C69.4153 36.448 70.4713 36.16 71.3993 35.584C72.3273 34.976 73.0473 34.176 73.5593 33.184C74.1033 32.16 74.3753 31.024 74.3753 29.776C74.3753 28.528 74.1033 27.408 73.5593 26.416C73.0473 25.424 72.3273 24.624 71.3993 24.016C70.4713 23.408 69.4153 23.104 68.2313 23.104C67.0473 23.104 65.9913 23.408 65.0633 24.016C64.1353 24.624 63.3993 25.44 62.8553 26.464C62.3433 27.456 62.0872 28.56 62.0872 29.776ZM89.6299 19.888L90.1099 25.648L89.8699 24.88C90.4139 23.664 91.1819 22.624 92.1739 21.76C93.1659 20.896 94.1899 20.24 95.2459 19.792C96.3339 19.312 97.2459 19.072 97.9819 19.072L97.7419 23.968C96.2059 23.872 94.8619 24.16 93.7099 24.832C92.5899 25.504 91.7099 26.4 91.0699 27.52C90.4299 28.64 90.1099 29.84 90.1099 31.12V40H85.2139V19.888H89.6299ZM111.473 40.48C109.585 40.48 107.873 40.096 106.337 39.328C104.801 38.528 103.585 37.344 102.689 35.776C101.793 34.208 101.345 32.272 101.345 29.968C101.345 27.696 101.809 25.744 102.737 24.112C103.697 22.48 104.945 21.232 106.481 20.368C108.049 19.472 109.745 19.024 111.569 19.024C113.489 19.024 115.057 19.44 116.273 20.272C117.521 21.072 118.497 22.016 119.201 23.104L118.865 23.872L119.345 19.888H123.905V40H118.961V34.96L119.489 36.16C119.361 36.416 119.089 36.784 118.673 37.264C118.257 37.712 117.697 38.192 116.993 38.704C116.321 39.216 115.521 39.648 114.593 40C113.697 40.32 112.657 40.48 111.473 40.48ZM112.817 36.448C113.873 36.448 114.817 36.256 115.649 35.872C116.481 35.488 117.185 34.944 117.761 34.24C118.337 33.536 118.737 32.704 118.961 31.744V27.568C118.705 26.672 118.273 25.904 117.665 25.264C117.057 24.592 116.321 24.064 115.457 23.68C114.625 23.296 113.697 23.104 112.673 23.104C111.521 23.104 110.465 23.392 109.505 23.968C108.545 24.512 107.777 25.28 107.201 26.272C106.625 27.264 106.337 28.416 106.337 29.728C106.337 30.976 106.625 32.112 107.201 33.136C107.809 34.16 108.609 34.976 109.601 35.584C110.593 36.16 111.665 36.448 112.817 36.448Z" fill="white"/>
<path d="M77.5 17.5C71.1 14.3 61.5 16.1666 58 17.5L55 10L63 12.5L68 2L73.5 12.5L80.5 10L77.5 17.5Z" stroke="white"/>
</svg>
